<?xml version="1.0" encoding="UTF-8" standalone="no"?>
<!-- Created with Inkscape (http://www.inkscape.org/) -->

<svg
   width="210mm"
   height="297mm"
   viewBox="0 0 210 297"
   version="1.1"
   id="svg5"
   inkscape:version="1.1 (c68e22c387, 2021-05-23)"
   sodipodi:docname="sample_svg_importer.svg"
   xmlns:inkscape="http://www.inkscape.org/namespaces/inkscape"
   xmlns:sodipodi="http://sodipodi.sourceforge.net/DTD/sodipodi-0.dtd"
   xmlns="http://www.w3.org/2000/svg"
   xmlns:svg="http://www.w3.org/2000/svg">
  <sodipodi:namedview
     id="namedview7"
     pagecolor="#505050"
     bordercolor="#eeeeee"
     borderopacity="1"
     inkscape:pageshadow="0"
     inkscape:pageopacity="0"
     inkscape:pagecheckerboard="0"
     inkscape:document-units="mm"
     showgrid="false"
     inkscape:zoom="0.22627417"
     inkscape:cx="956.80387"
     inkscape:cy="-1372.2291"
     inkscape:window-width="1858"
     inkscape:window-height="1057"
     inkscape:window-x="1974"
     inkscape:window-y="-8"
     inkscape:window-maximized="1"
     inkscape:current-layer="layer1"
     showguides="true" />
  <defs
     id="defs2" />
  <g
     inkscape:label="Layer 1"
     inkscape:groupmode="layer"
     id="layer1">
    <path
       id="walls_base"
       style="fill:#999999;stroke-width:0.302109"
       d="M 932.99992,-510.99976 H 904.00013 28.9998 3.9e-5 v 0.25735 28.99977 V 268.00024 297 H 28.9998 904.00013 932.99992 v -778.99998 z m -28.99979,28.99978 V 268.00024 H 28.9998 v -749.74288 -0.25734 z"
       b_height="215"
       b_type="wall_base"
       b_level="EG"
       b_elevation="0" />
    <path
       id="walls_base_sec_floor"
       style="fill:#808080;stroke-width:0.302109"
       d="M 932.99993,-510.99976 H 904.00013 28.99973 3e-5 v 0.25735 28.99977 V 268.00024 297 h 28.9997 875.0004 28.9998 v -778.99998 z m -28.9998,28.99978 V 268.00024 H 28.99973 v -749.74288 -0.25734 z"
       b_height="215"
       b_type="wall_base"
       b_level="OG"
       b_elevation="270" />
    <path
       id="walls_bs_2fl_upper"
       style="fill:#808080;stroke-width:0.302109"
       d="M 932.99993,-510.99976 H 904.00013 28.99973 3e-5 v 0.25735 28.99977 749.74288 28.99974 h 28.9997 875.0004 28.9998 v -778.99996 z m -28.9998,28.99978 V 268.00024 H 28.99973 v -749.74288 -0.25734 z"
       b_height="35"
       b_type="wall_base"
       b_level="OG"
       b_elevation="485" />
    <path
       id="wall_base_upper"
       style="fill:#b3b3b3;stroke-width:0.302109"
       d="M 932.99993,-510.99976 H 904.00013 28.99976 0 v 0.25735 28.99977 V 268.00024 297 h 28.99976 875.00037 28.9998 v -778.99998 z m -28.9998,28.99978 V 268.00024 H 28.99976 v -749.74288 -0.25734 z"
       b_height="35"
       b_type="wall_base"
       b_level="EG"
       b_elevation="215" />
    <path
       id="2nd_level_floor"
       style="fill:#999999;stroke-width:0.302109"
       d="m 3e-5,-510.99923 v 0.25683 29.00029 749.74288 28.99977 h 28.9998 875.0003 28.9998 v -778.99998 -28.99979 h -28.9998 -875.0003 z m 28.9998,778.99947 h 875.0003 v 5.3e-4 H 28.99983 Z"
       b_height="20"
       b_type="floor"
       b_level="OG"
       b_elevation="250" />
    <path
       id="3rd_level_floor"
       style="fill:#808080;stroke-width:0.302109"
       d="m 3e-5,-510.99923 v 0.25683 29.00029 749.74295 28.9997 h 28.9998 875.0003 28.9998 v -778.99998 -28.99979 h -28.9998 -875.0003 z m 28.9998,778.99947 h 875.0003 v 6e-4 H 28.99983 Z"
       b_height="20"
       b_type="floor"
       b_level="DG"
       b_elevation="520" />
    <path
       id="walls_base_last_floor"
       style="fill:#666666;stroke-width:0.302109"
       d="m 932.99992,-510.99976 v 0.25683 29.00029 749.74297 28.9997 H 904.00012 28.99984 4e-5 v -779 -28.99979 h 28.9998 875.00028 z m -28.9998,778.99949 H 28.99984 v 6e-4 h 875.00028 z"
       b_height="209"
       b_type="wall_base"
       b_level="DG"
       b_elevation="540" />
    <path
       id="door1"
       style="fill:#008000;stroke-width:0.876377"
       d="m 318.9998,259.01998 h 112 v 46.96052 h -112 z"
       b_type="doorway"
       b_height="215"
       b_level="EG"
       b_elevation="0" />
    <path
       id="win2"
       style="fill:#ff0000;stroke-width:0.847986"
       d="m 711.9998,260.51669 h 150 v 43.9671 h -150 z"
       b_type="window"
       b_height="60"
       b_level="EG"
       b_elevation="90" />
    <path
       id="win1"
       style="fill:#ff0000;stroke-width:0.987137"
       d="M 65.000039,252.70966 H 215.00004 v 59.58068 H 65.000039 Z"
       b_elevation="90"
       b_level="EG"
       b_height="60"
       b_type="window" />
    <path
       id="win4"
       style="fill:#ff0000;stroke-width:0.876377"
       d="M 88.000039,-519.98002 H 238.00004 v 46.96052 H 88.000039 Z"
       b_elevation="90"
       b_level="EG"
       b_type="window"
       b_height="60" />
    <path
       id="door2"
       style="fill:#008000;stroke-width:0.908866"
       d="m 630.99992,-521.75316 h 212 v 50.5068 h -212 z"
       b_type="doorway"
       b_height="215"
       b_level="EG"
       b_elevation="0" />
    <path
       id="door_2fl_1"
       style="fill:#008000;stroke-width:0.627248"
       d="m 37.98033,-312.99997 v 112 h -45.5351 v -112 z"
       b_type="doorway"
       b_height="215"
       b_level="OG"
       b_elevation="270" />
    <path
       id="win3"
       style="fill:#ff0000;stroke-width:0.961726"
       d="m 313.00004,-524.77608 h 150 v 56.55264 h -150 z"
       b_height="60"
       b_type="window"
       b_level="EG"
       b_elevation="90" />
    <path
       id="win_2fl_2"
       style="fill:#ff0000;stroke-width:0.736461"
       d="m 942.26043,-313.99975 v 112 h -44.4143 v -112 z"
       b_height="124"
       b_type="window"
       b_level="OG"
       b_elevation="361" />
    <path
       id="win_2fl_1"
       style="fill:#ff0000;stroke-width:0.736461"
       d="M 940.93143,-12.000001 V 100 h -44.4143 V -12.000001 Z"
       b_height="124"
       b_type="window"
       b_level="OG"
       b_elevation="361" />
    <path
       id="rect5226"
       style="fill:#ff0000;stroke-width:0.264583"
       d="M -6.9677565,-176 H 46.235586 V -64 H -6.9677565 Z"
       b_elevation="90"
       b_type="window"
       b_level="EG"
       b_height="124" />
  </g>
</svg>
